<?xml version="1.0" encoding="UTF-8"?>
<svg id="Calque_1" data-name="Calque 1" xmlns="http://www.w3.org/2000/svg" viewBox="0 0 73.36 60.63">
  <path d="M55.84,11.24c-11.56-8.9-27.37-8.5-38.31.68-5.23,4.4-8.57,10.27-9.19,17.04,3.23-.11,5.86-.15,7.96,1.19,1.72,1.09,2.89,4.16,2.88,6.49l-.07,16.84c-.02,4.39-3.65,7.33-7.53,7.13s-6.93-3.54-6.87-7.94C2.62,52.99-.02,51.9,0,49.52l.07-10.27c0-.9,2.27-2.4,2.88-2.85l.6-8.42c.56-7.89,4.76-14.72,10.95-19.84,13.12-10.84,32.04-10.86,45.14,0,6.39,5.3,10.42,12.48,11.02,20.63l.56,7.7c.53.71,2.14,2.62,2.13,3.56l-.05,9.52c-.01,2.33-2.56,3.46-4.69,3.12.03,4.17-2.38,7.26-6.12,7.87-3.5.57-8.19-1.88-8.18-6.28v-19.11c0-4.71,5.39-7.38,9.34-5.92l1.5.36c1.77.43-.22-11.34-9.33-18.35Z"/>
</svg>